<svg xmlns="http://www.w3.org/2000/svg" viewBox="0 0 134 134"><defs><style>.cls-1{fill:#f89e22;}.cls-2{fill:#e6e7e8;}.cls-3{fill:#fff;}.cls-4{fill:none;stroke:#231f20;stroke-linecap:round;stroke-miterlimit:10;}.cls-5{fill:#8bd1cc;}.cls-6{fill:#fbb03b;}.cls-7{fill:#dd000c;}</style></defs><title>icon_apply</title><g id="Layer_2" data-name="Layer 2"><g id="icon_apply"><g id="Layer_27" data-name="Layer 27"><circle class="cls-1" cx="67" cy="67" r="67"/></g><polygon class="cls-2" points="96.5 27.68 93.75 50.34 113.73 52.77 114 52.8 113.83 52.55 96.5 27.68"/><polygon class="cls-2" points="96.58 26.98 96.5 27.68 95.74 26.59 96.58 26.98"/><polygon class="cls-3" points="113.73 52.77 80.15 125.21 16.95 95.92 57.33 8.79 95.74 26.59 96.5 27.68 93.75 50.34 113.73 52.77"/><line class="cls-4" x1="53.76" y1="52.3" x2="88.98" y2="67.13"/><line class="cls-4" x1="51.75" y1="57.93" x2="86.97" y2="72.76"/><line class="cls-4" x1="48.75" y1="63.11" x2="83.97" y2="77.94"/><polygon class="cls-5" points="28.03 34.11 42.2 28.81 42.21 28.8 61.9 99.43 47.71 104.74 28.02 34.11 28.03 34.11"/><polygon class="cls-6" points="47.71 104.74 54.5 108.43 56.95 109.77 58.33 106.87 61.9 99.43 47.71 104.74"/><path class="cls-7" d="M42.13,28.5a2.35,2.35,0,0,1,.07.31L28,34.11a2.3,2.3,0,0,1-.1-.3c-1-3.53,1.39-7.58,5.31-9S41.14,25,42.13,28.5Z"/></g></g></svg>