<svg xmlns="http://www.w3.org/2000/svg" viewBox="0 0 134 134"><defs><style>.cls-1{fill:#2da9e0;}.cls-2{fill:#8bd1cc;}.cls-3{fill:#f9f9f9;}.cls-4{fill:#dd000c;}</style></defs><title>icon_announce</title><g id="Layer_2" data-name="Layer 2"><g id="icon_announce"><circle class="cls-1" cx="67" cy="67" r="67"/><g id="annoce"><polygon class="cls-2" points="70.71 40.69 89.41 76.81 84.93 78.15 67.21 43.93 70.71 40.69"/><polygon class="cls-3" points="75.59 36.15 95.69 74.95 89.41 76.81 70.71 40.69 75.59 36.15"/><polygon class="cls-3" points="16.11 91.98 19.08 97.72 21.9 103.16 35.7 96 34.26 93.22 84.93 78.15 67.21 43.93 15.9 91.57 16.11 91.98"/><path class="cls-2" d="M35.71,96l2.38,4.6v0l1.69,3.27L26,111l-1.7-3.29-2.38-4.6Z"/><g id="Layer_31" data-name="Layer 31"><polygon class="cls-4" points="86.53 49.93 105.22 26.09 109.35 34.06 86.53 49.93"/><polygon class="cls-4" points="89.29 55.24 112.1 39.38 115.96 46.83 89.29 55.24"/><polygon class="cls-4" points="92.04 60.56 117.12 52.98 120.42 59.36 92.04 60.56"/></g></g></g></g></svg>